<?xml version="1.0" encoding="utf-8"?>
<!-- Generator: Adobe Illustrator 28.0.0, SVG Export Plug-In . SVG Version: 6.00 Build 0)  -->
<svg version="1.1" id="Layer_1" xmlns="http://www.w3.org/2000/svg" xmlns:xlink="http://www.w3.org/1999/xlink" x="0px" y="0px"
	 viewBox="0 0 281 238.2" style="enable-background:new 0 0 281 238.2;" xml:space="preserve">
<style type="text/css">
	.st0{fill:#FFFFFF;}
</style>
<path class="st0" d="M162,238.2c-6.2,0-11.9-2.4-16.3-6.7c-9-9-9-23.6,0-32.6l56.8-56.8H23c-12.7,0-23-10.3-23-23s10.3-23,23-23
	h179.4l-56.8-56.8c-9-9-9-23.6,0-32.6C150,2.4,155.8,0,162,0c6.2,0,11.9,2.4,16.3,6.7l96,96c9,9,9,23.6,0,32.6l-2.6,2.6v0.1
	l-93.4,93.4C173.9,235.8,168.1,238.2,162,238.2z"/>
</svg>
