<?xml version="1.0" encoding="UTF-8"?>
<svg preserveAspectRatio="xMidYMid slice" width="256px" height="256px" xmlns="http://www.w3.org/2000/svg" viewBox="0 0 190 217.81">
  <defs>
    <style>.cls-1{fill:#485956;}.cls-2{fill:#f2ede7;}</style>
  </defs>
  <title>ocasa-homes-logo-large</title>
  <g id="Layer_2" data-name="Layer 2">
    <g id="Layer_1-2" data-name="Layer 1">
      <polygon class="cls-1" points="0 0 0 57.81 0 160 0 217.81 95 161.24 190 217.81 190 160 190 57.81 190 0 0 0"></polygon>
      <path class="cls-2" d="M38.14,68.24a15.05,15.05,0,0,0-7.52-1.86,15.17,15.17,0,0,0-7.5,1.86,13.14,13.14,0,0,0-5.18,5.39A17.68,17.68,0,0,0,16.09,82a17.66,17.66,0,0,0,1.85,8.33,13.08,13.08,0,0,0,5.18,5.39,15,15,0,0,0,7.5,1.86,15,15,0,0,0,7.52-1.86,13.16,13.16,0,0,0,5.16-5.39A17.66,17.66,0,0,0,45.15,82a17.68,17.68,0,0,0-1.85-8.33A13.22,13.22,0,0,0,38.14,68.24ZM35.45,91.37a8.87,8.87,0,0,1-4.83,1.27,8.84,8.84,0,0,1-4.83-1.27,8.25,8.25,0,0,1-3.06-3.65,15.68,15.68,0,0,1,0-11.54,8.3,8.3,0,0,1,3.06-3.63,8.87,8.87,0,0,1,4.83-1.27,8.87,8.87,0,0,1,4.83,1.27,8.37,8.37,0,0,1,3.06,3.63,15.68,15.68,0,0,1,0,11.54A8.32,8.32,0,0,1,35.45,91.37Z"></path>
      <path class="cls-2" d="M72.57,86.93A7.28,7.28,0,0,1,71.17,90a6.54,6.54,0,0,1-2.56,1.91,9.72,9.72,0,0,1-3.76.66,8.89,8.89,0,0,1-4.77-1.24,7.83,7.83,0,0,1-3-3.62,16.09,16.09,0,0,1,0-11.54,7.85,7.85,0,0,1,3-3.59,8.81,8.81,0,0,1,4.77-1.25,7.37,7.37,0,0,1,4.65,1.39,8.43,8.43,0,0,1,2.67,4.07l.16.48,5.27-2.5-.17-.39a14.4,14.4,0,0,0-2.83-4.26,11.76,11.76,0,0,0-4.14-2.78,14.62,14.62,0,0,0-5.49-1,15.17,15.17,0,0,0-7.5,1.86,13.14,13.14,0,0,0-5.18,5.39A17.68,17.68,0,0,0,50.44,82a17.66,17.66,0,0,0,1.85,8.33,13.08,13.08,0,0,0,5.18,5.39A15,15,0,0,0,65,97.54a14.55,14.55,0,0,0,5.67-1.05,11.94,11.94,0,0,0,4.29-3,14.81,14.81,0,0,0,2.8-4.75l.15-.42-5.21-1.83Z"></path>
      <path class="cls-2" d="M108.81,92.52c-1.23,0-1.77-.51-1.77-1.65V76.78a10.34,10.34,0,0,0-1.56-5.87,9.5,9.5,0,0,0-4.24-3.42,15.28,15.28,0,0,0-5.88-1.11,14.7,14.7,0,0,0-8,2.08A10.79,10.79,0,0,0,82.83,74l-.12.34,4.56,2.81.18-.53a7.26,7.26,0,0,1,2.9-4,9.06,9.06,0,0,1,4.89-1.25A6.27,6.27,0,0,1,99.88,73a6.49,6.49,0,0,1,1.61,4.72v.75l-10.23,2a12.16,12.16,0,0,0-6.31,3A8.29,8.29,0,0,0,84,93.84a8.31,8.31,0,0,0,3.71,2.8,13.38,13.38,0,0,0,4.94.9A14,14,0,0,0,97,96.85a11.48,11.48,0,0,0,3.94-2.18,7.35,7.35,0,0,0,.92-.93,6.84,6.84,0,0,0,.38.82,5.21,5.21,0,0,0,2.29,2.12,7.35,7.35,0,0,0,3.22.69,7.23,7.23,0,0,0,3.23-.63l.23-.12.28-4.54-.6.17A7.64,7.64,0,0,1,108.81,92.52Zm-19.3-6.13a10.52,10.52,0,0,1,4.08-1.55l7.9-1.62v2.53a6.54,6.54,0,0,1-.65,3,6.05,6.05,0,0,1-1.78,2.11,8.13,8.13,0,0,1-2.63,1.27,11.34,11.34,0,0,1-3.11.42,6,6,0,0,1-3.77-1A3.12,3.12,0,0,1,88.29,89,3,3,0,0,1,89.51,86.39Z"></path>
      <path class="cls-2" d="M132.13,80.36l-7.28-1.51a5.15,5.15,0,0,1-3-1.39,3.2,3.2,0,0,1-.77-2.08,3.26,3.26,0,0,1,.69-2,4.87,4.87,0,0,1,2.09-1.46,9.52,9.52,0,0,1,3.41-.55,9.24,9.24,0,0,1,4.39,1.14,6.55,6.55,0,0,1,3,3.53l.2.51,4.68-3.07-.16-.35a11,11,0,0,0-4.61-5,15,15,0,0,0-7.5-1.75,14.36,14.36,0,0,0-6.15,1.24A9.92,9.92,0,0,0,117,70.94a8,8,0,0,0-1.45,4.62,7.77,7.77,0,0,0,2,5.36c1.28,1.42,3.41,2.45,6.32,3l7,1.45a4.72,4.72,0,0,1,2.74,1.32,3.12,3.12,0,0,1,.69,2,3.18,3.18,0,0,1-1.55,2.74,8,8,0,0,1-4.58,1.12,10.85,10.85,0,0,1-5.74-1.45,9.35,9.35,0,0,1-3.59-4l-.22-.48-4.72,3.4.2.34a13.39,13.39,0,0,0,5.69,5.3,17.66,17.66,0,0,0,8,1.85A15.87,15.87,0,0,0,134,96.4a9.57,9.57,0,0,0,4.27-3.33,8.55,8.55,0,0,0,1.54-5,7.15,7.15,0,0,0-1.74-4.84C136.93,81.87,134.93,80.92,132.13,80.36Z"></path>
      <path class="cls-2" d="M173.31,92.25a7.64,7.64,0,0,1-2,.27c-1.23,0-1.77-.51-1.77-1.65V76.78A10.34,10.34,0,0,0,168,70.91a9.5,9.5,0,0,0-4.24-3.42,15.28,15.28,0,0,0-5.88-1.11,14.7,14.7,0,0,0-8,2.08A10.75,10.75,0,0,0,145.3,74l-.12.34,4.56,2.81.18-.53a7.26,7.26,0,0,1,2.9-4,9.06,9.06,0,0,1,4.89-1.25A6.23,6.23,0,0,1,162.34,73,6.45,6.45,0,0,1,164,77.71v.75l-10.23,2a12.16,12.16,0,0,0-6.31,3,8.29,8.29,0,0,0-.92,10.36,8.31,8.31,0,0,0,3.71,2.8,13.38,13.38,0,0,0,4.94.9,14,14,0,0,0,4.27-.69,11.35,11.35,0,0,0,3.93-2.18,6.81,6.81,0,0,0,.93-.93,6.84,6.84,0,0,0,.38.82A5.21,5.21,0,0,0,167,96.68a8.21,8.21,0,0,0,6.45.06l.23-.12.28-4.54ZM152,86.39a10.53,10.53,0,0,1,4.07-1.55L164,83.22v2.53a6.54,6.54,0,0,1-.65,3,6,6,0,0,1-1.79,2.11,8,8,0,0,1-2.62,1.27,11.34,11.34,0,0,1-3.11.42,6,6,0,0,1-3.77-1A3.12,3.12,0,0,1,150.76,89,3,3,0,0,1,152,86.39Z"></path>
    </g>
  </g>
</svg>
