<?xml version="1.0" encoding="utf-8"?>
<!-- Generator: Adobe Illustrator 28.0.0, SVG Export Plug-In . SVG Version: 6.00 Build 0)  -->
<svg version="1.1" id="Layer_1" xmlns="http://www.w3.org/2000/svg" xmlns:xlink="http://www.w3.org/1999/xlink" x="0px" y="0px"
	 viewBox="0 0 77.6 77.6" style="enable-background:new 0 0 77.6 77.6;" xml:space="preserve">
<style type="text/css">
	.st0{fill:#FFFFFF;}
	.st1{fill:#605E5D;}
	.st2{fill:#30AD23;}
	.st3{fill:#D82A07;}
</style>
<rect class="st0" width="77.6" height="77.6"/>
<g>
	<path class="st1" d="M55.5,44.2H21.4c-0.8,0-1.4-0.6-1.4-1.4V34c0-0.8,0.6-1.4,1.4-1.4h34.1c0.8,0,1.4,0.6,1.4,1.4v8.8
		C56.9,43.6,56.3,44.2,55.5,44.2z M22.7,41.5h31.4v-6.1H22.7V41.5z"/>
	<path class="st2" d="M54.9,26.2h-8.7v-2.7h6L38.5,4L24.8,23.5h16.3v2.7h-19c-0.5,0-1-0.3-1.2-0.7s-0.2-1,0.1-1.4L37.4,0.8
		c0.5-0.7,1.7-0.7,2.2,0L56,24.1c0.3,0.4,0.3,1,0.1,1.4S55.4,26.2,54.9,26.2z"/>
	<path class="st3" d="M38.5,76.7c-0.4,0-0.9-0.2-1.1-0.6L21,52.9c-0.3-0.4-0.3-1-0.1-1.4c0.2-0.5,0.7-0.7,1.2-0.7h8.8v2.7h-6.2
		L38.5,73l13.8-19.5H36.1v-2.7h18.8c0.5,0,1,0.3,1.2,0.7c0.2,0.5,0.2,1-0.1,1.4L39.6,76.2C39.4,76.5,39,76.7,38.5,76.7z"/>
</g>
</svg>
